<svg width="16" height="17" viewBox="0 0 16 17" fill="none" xmlns="http://www.w3.org/2000/svg">
<path d="M8.189 11.2017C5.54727 11.2017 3.198 12.4772 1.70233 14.4566C1.38042 14.8827 1.21947 15.0957 1.22473 15.3836C1.2288 15.606 1.36847 15.8866 1.54348 16.0239C1.76999 16.2017 2.08389 16.2017 2.7117 16.2017H13.6663C14.2941 16.2017 14.608 16.2017 14.8345 16.0239C15.0095 15.8866 15.1492 15.606 15.1533 15.3836C15.1585 15.0957 14.9976 14.8827 14.6757 14.4566C13.18 12.4772 10.8307 11.2017 8.189 11.2017Z" stroke="#414042" stroke-width="1.5" stroke-linecap="round" stroke-linejoin="round"/>
<path d="M8.189 8.70166C10.2601 8.70166 11.939 7.02273 11.939 4.95166C11.939 2.88059 10.2601 1.20166 8.189 1.20166C6.11794 1.20166 4.439 2.88059 4.439 4.95166C4.439 7.02273 6.11794 8.70166 8.189 8.70166Z" stroke="#414042" stroke-width="1.5" stroke-linecap="round" stroke-linejoin="round"/>
</svg>
